<?xml version="1.0" encoding="UTF-8"?>
<svg version="1.1" xmlns="http://www.w3.org/2000/svg" width="261" height="302">
<path d="M0 0 C1.14001465 0.00902344 2.2800293 0.01804688 3.45458984 0.02734375 C25.12804315 0.47135816 43.89742582 9.84690341 59.48828125 24.6171875 C63.00075756 28.34109442 65.62799085 32.12650053 68.1262207 36.59863281 C70.91008986 41.95094668 70.91008986 41.95094668 75.48046875 45.5703125 C77.79233931 46.03358426 77.79233931 46.03358426 80.08203125 46.203125 C84.54463088 46.69988934 87.47260539 49.68288902 90.4375 52.8125 C96.60385504 62.06203256 96.12830166 75.66308095 95.1875 86.4375 C93.84045573 91.06968283 91.73936703 93.45083415 87.69921875 96.01953125 C81.19283747 99.4375 81.19283747 99.4375 78.1875 99.4375 C78.05021484 100.91283203 78.05021484 100.91283203 77.91015625 102.41796875 C77.26207124 106.90271701 75.57445142 110.68852808 73.625 114.75 C73.09362427 115.86713379 73.09362427 115.86713379 72.55151367 117.00683594 C68.45993692 125.31821807 62.92670415 132.11949611 56.1875 138.4375 C56.86296875 138.994375 57.5384375 139.55125 58.234375 140.125 C65.77216674 146.57351548 69.7456574 151.09122412 70.8828125 161.0078125 C71.98135017 167.85803909 74.78293423 172.76821359 78.5625 178.5 C79.14 179.42232422 79.7175 180.34464844 80.3125 181.29492188 C82.9832748 185.47486737 85.17545841 188.49699747 89.1875 191.4375 C89.91015625 193.56640625 89.91015625 193.56640625 90.25 196 C90.81890892 199.55696205 91.59472569 202.7378882 92.8125 206.125 C94.92093516 212.74696972 94.43465558 219.57206729 94.1875 226.4375 C95.08597656 226.10492188 95.98445312 225.77234375 96.91015625 225.4296875 C102.48556006 223.74178217 107.75468965 224.46739307 113 227 C117.451606 229.81969475 119.3316048 234.38768119 120.71582031 239.32006836 C124.49703917 256.29445303 119.26414748 278.76255747 110.1875 293.4375 C102.28844569 299.5998086 94.48143731 299.73174491 84.77197266 299.27636719 C80.75323948 299.07326661 80.75323948 299.07326661 77.34128571 300.92760658 C74.48412607 302.9305944 72.62365977 302.81479941 69.15270996 302.81845093 C67.9161113 302.8269104 66.67951263 302.83536987 65.40544128 302.84408569 C64.037871 302.83825298 62.67030201 302.83210848 61.30273438 302.82568359 C59.86037295 302.82974935 58.41801464 302.83509125 56.97566223 302.84161377 C53.06038848 302.85529289 49.14535183 302.84998635 45.23007393 302.84047651 C41.13331588 302.83288297 37.03657818 302.83992467 32.93981934 302.84463501 C26.05994012 302.85009346 19.18015752 302.84289863 12.30029297 302.82861328 C4.34541695 302.81228656 -3.6092284 302.817575 -11.56409883 302.8340925 C-18.3930803 302.84770485 -25.22199231 302.84962827 -32.05098295 302.84177649 C-36.13004049 302.83709858 -40.20898959 302.83647833 -44.28804016 302.84638596 C-48.12288019 302.85504973 -51.95742273 302.84904473 -55.79223061 302.83170319 C-57.19992389 302.82773516 -58.6076422 302.82887783 -60.01532555 302.83549118 C-61.93611128 302.84368337 -63.8569517 302.83159068 -65.77770996 302.81845093 C-66.85285606 302.81731985 -67.92800217 302.81618877 -69.03572845 302.81502342 C-72.19329391 302.38572814 -73.37224117 301.39201663 -75.8125 299.4375 C-78.59235124 299.2987964 -81.17340394 299.30104615 -83.9375 299.4375 C-91.83757678 299.62887458 -98.60182533 299.19137069 -105.38671875 294.75390625 C-115.48739726 285.10865286 -118.55771524 263.64706049 -118.9140625 250.24609375 C-118.70176496 242.28493589 -117.13758998 234.54569145 -111.8125 228.4375 C-107.66995996 225.00510968 -103.07399451 224.31390785 -97.8125 224.4375 C-91.07940015 225.62718306 -86.59095314 229.79884203 -81.8125 234.4375 C-82.31011249 225.99524671 -83.45393234 217.72610409 -84.79614258 209.38183594 C-85.43089364 205.36239929 -86.00545107 201.52302925 -85.8125 197.4375 C-86.40675781 197.29054687 -87.00101563 197.14359375 -87.61328125 196.9921875 C-109.66685887 191.02434534 -124.46562359 174.4131224 -135.8125 155.4375 C-139.31933927 149.24766895 -140.82285751 144.61825519 -139.8125 137.4375 C-138.42177117 133.79511497 -136.91608237 130.86639055 -133.8125 128.4375 C-133.1525 128.4375 -132.4925 128.4375 -131.8125 128.4375 C-131.709375 127.839375 -131.60625 127.24125 -131.5 126.625 C-130.70613064 124.09905205 -129.85677591 123.08864593 -127.8125 121.4375 C-120.26998016 118.92332672 -114.71306817 121.43358134 -107.8125 124.4375 C-106.8225 124.7675 -105.8325 125.0975 -104.8125 125.4375 C-104.27625 124.468125 -103.74 123.49875 -103.1875 122.5 C-100.8125 119.4375 -100.8125 119.4375 -97.875 118.3125 C-94.8125 118.4375 -94.8125 118.4375 -92.125 119.75 C-88.20824241 124.30190747 -87.32495234 129.96841143 -86.125 135.75 C-84.14035971 139.81378725 -80.77821781 141.46642045 -76.8125 143.4375 C-70.50256095 145.54081302 -63.97911106 144.7808122 -57.8125 142.4375 C-56.14145117 140.92856428 -56.14145117 140.92856428 -54.8125 139.4375 C-55.28558594 139.02242187 -55.75867188 138.60734375 -56.24609375 138.1796875 C-60.85417015 133.88600227 -64.43220662 129.34120299 -67.8125 124.0625 C-68.40889282 123.1341333 -68.40889282 123.1341333 -69.01733398 122.18701172 C-71.8125 117.71302106 -71.8125 117.71302106 -71.8125 115.4375 C-72.75609375 115.43363281 -72.75609375 115.43363281 -73.71875 115.4296875 C-79.70905801 115.15904105 -83.3836405 113.9700822 -88.12109375 110.30078125 C-95.54950134 102.11752392 -95.26536923 88.66651516 -95.0625 78.21875 C-94.5049461 72.01596285 -91.40947528 68.39303687 -86.8125 64.4375 C-83.51809244 62.52674361 -81.62883363 61.4375 -77.8125 61.4375 C-77.6475 60.2825 -77.4825 59.1275 -77.3125 57.9375 C-74.84274554 46.86739492 -68.4084831 35.74608031 -60.8125 27.4375 C-60.01199219 26.54546875 -59.21148437 25.6534375 -58.38671875 24.734375 C-42.99899265 8.43362897 -22.35087665 -0.21327808 0 0 Z M-80.8125 235.4375 C-79.8125 237.4375 -79.8125 237.4375 -79.8125 237.4375 Z " fill="#38838F" transform="translate(139.8125,-0.4375)"/>
<path d="M0 0 C2.22678057 0.01608136 4.45174057 0.00004535 6.6784668 -0.01904297 C26.60469766 -0.04879548 47.05543103 4.03283627 62.04370117 18.14111328 C71.84411053 28.55528565 75.37336071 40.05603655 75.23120117 54.14111328 C75.21984131 55.72327637 75.21984131 55.72327637 75.20825195 57.33740234 C75.03376262 65.62882955 73.9888622 72.67112793 70.79370117 80.39111328 C70.14014648 81.98826172 70.14014648 81.98826172 69.47338867 83.61767578 C62.03814979 99.99145322 46.68259159 108.11975223 30.42651367 114.28955078 C5.99594664 122.82756902 -21.81839176 121.50995435 -45.20629883 110.39111328 C-60.98814443 102.06130828 -67.91832082 91.61105829 -74.37817383 75.46142578 C-77.97118819 63.76718094 -78.61411261 46.88897649 -73.46020508 35.62939453 C-73.04641602 34.89076172 -72.63262695 34.15212891 -72.20629883 33.39111328 C-71.78219727 32.62154297 -71.3580957 31.85197266 -70.92114258 31.05908203 C-60.88158416 14.64342522 -45.12590129 7.0804314 -26.99755859 2.59765625 C-17.93304769 0.56969658 -9.27704083 -0.07929964 0 0 Z " fill="#17A2B8" transform="translate(141.206298828125,27.60888671875)"/>
<path d="M0 0 C1.21584495 0.00092179 2.43168989 0.00184359 3.68437862 0.00279331 C4.35901919 0.00193889 5.03365975 0.00108446 5.72874397 0.00020415 C8.00588764 -0.00145256 10.28295882 0.00407379 12.56009579 0.00952244 C14.18583836 0.00980429 15.81158107 0.00964661 17.43732357 0.00907993 C21.86482015 0.0087919 26.29228989 0.01468956 30.71978021 0.02165389 C35.34159444 0.02788646 39.96340922 0.02849115 44.58522701 0.0296793 C53.34356839 0.0327929 62.10189735 0.04100667 70.86023325 0.05102879 C80.82862615 0.06218903 90.79701963 0.06770015 100.76541722 0.07272422 C121.27698043 0.08318927 141.78853244 0.10078926 162.30008602 0.12304783 C162.63008602 1.77304783 162.96008602 3.42304783 163.30008602 5.12304783 C162.12446102 4.87554783 162.12446102 4.87554783 160.92508602 4.62304783 C152.81290117 3.50412578 146.22155552 3.26192274 139.30008602 8.12304783 C133.44366458 13.49143415 131.39771451 21.30657674 130.87430477 29.00586033 C130.81354423 30.77363278 130.76807553 32.54199428 130.73758602 34.31054783 C130.71083797 35.15367527 130.68408993 35.99680271 130.65653133 36.86547947 C130.69311179 43.07866958 132.29085697 47.34039059 136.30008602 52.12304783 C138.82989309 54.0780564 138.82989309 54.0780564 141.30008602 55.12304783 C141.96008602 55.45304783 142.62008602 55.78304783 143.30008602 56.12304783 C145.34063607 56.19370399 147.38342859 56.20726759 149.42508602 56.18554783 C150.52078915 56.17652439 151.61649227 56.16750095 152.74539852 56.15820408 C153.5884454 56.14660252 154.43149227 56.13500095 155.30008602 56.12304783 C154.84605491 59.87358137 154.38604062 63.62335943 153.92508602 67.37304783 C153.7987579 68.41718845 153.67242977 69.46132908 153.54227352 70.53711033 C153.34891415 72.10332127 153.34891415 72.10332127 153.15164852 73.70117283 C152.97883358 75.11511326 152.97883358 75.11511326 152.80252743 76.55761814 C152.06922237 81.76130474 151.16401937 86.93944776 150.30008602 92.12304783 C103.77008602 92.12304783 57.24008602 92.12304783 9.30008602 92.12304783 C7.65008602 80.24304783 6.00008602 68.36304783 4.30008602 56.12304783 C3.64008602 51.83304783 2.98008602 47.54304783 2.30008602 43.12304783 C1.54726747 38.10178921 0.80658827 33.07877477 0.06790829 28.05542088 C-0.26456603 25.79592245 -0.5984306 23.53663206 -0.93233585 21.2773447 C-1.14791509 19.81316443 -1.3634128 18.34897214 -1.57882023 16.88476658 C-1.77032658 15.58498875 -1.96183292 14.28521091 -2.15914249 12.94604588 C-2.33759708 11.68445652 -2.51605167 10.42286716 -2.69991398 9.12304783 C-2.80786289 8.38825199 -2.91581181 7.65345615 -3.0270319 6.89639378 C-3.29395894 4.97739394 -3.50195856 3.05038383 -3.69991398 1.12304783 C-2.69991398 0.12304783 -2.69991398 0.12304783 0 0 Z " fill="#E5E8F9" transform="translate(61.69991397857666,192.87695217132568)"/>
<path d="M0 0 C12.54877849 4.72727957 25.05475627 30.44417858 31 42 C31 42.66 31 43.32 31 44 C24.4 44 17.8 44 11 44 C8.625 36.6875 8.625 36.6875 7.88916016 34.3972168 C6.85558205 31.25737638 5.84457252 28.76685877 4 26 C4.2165625 27.9490625 4.2165625 27.9490625 4.4375 29.9375 C5.21875 36.96875 5.21875 36.96875 6 44 C-28.98 44 -63.96 44 -100 44 C-99.33333333 38 -98.66666667 32 -98 26 C-98.79807198 27.68448018 -99.58812301 29.37276127 -100.375 31.0625 C-100.81585938 32.00222656 -101.25671875 32.94195312 -101.7109375 33.91015625 C-103.31388385 37.58328389 -103.31388385 37.58328389 -105 44 C-110.94 44 -116.88 44 -123 44 C-122.25130208 40.84244792 -121.50260417 37.68489583 -120.75390625 34.52734375 C-119.29766871 27.71396294 -118.75940793 21.00199059 -118.4375 14.0625 C-118.37272461 12.75055664 -118.37272461 12.75055664 -118.30664062 11.41210938 C-118.20153099 9.27488005 -118.10036015 7.13745762 -118 5 C-117.11699219 4.87882813 -116.23398438 4.75765625 -115.32421875 4.6328125 C-114.12410156 4.46523437 -112.92398438 4.29765625 -111.6875 4.125 C-110.40746094 3.95226562 -109.12742187 3.77953125 -107.80859375 3.6015625 C-104.52999393 3.08371186 -101.45477301 2.33682739 -98.25 1.5 C-93.96709503 0.70433696 -91.97412919 1.16045656 -88.3125 3.5 C-87.10013672 4.34304687 -87.10013672 4.34304687 -85.86328125 5.203125 C-69.46049361 15.49682529 -48.88702078 17.17376724 -30.1875 13.875 C-19.1233174 11.33274445 -9.09561158 6.78561499 0 0 Z " fill="#FDFDFD" transform="translate(187,144)"/>
<path d="M0 0 C1.32 0 2.64 0 4 0 C5.91956709 4.00605306 6.98194386 6.43123147 7.125 10.9375 C7.5081771 14.87656056 9.15754867 16.62741622 12 19.3125 C16.34055844 22.85879895 20.55990986 24.76536961 26 26 C26.34858045 33.42347251 25.96422629 40.50665384 24.6875 47.8125 C24.51093872 48.85071899 24.51093872 48.85071899 24.33081055 49.90991211 C21.72312841 63.89930094 21.72312841 63.89930094 16.8125 67.6875 C13.25381526 69.34821955 11.79146029 68.89183927 8 68 C-2.55264149 63.93736078 -10.18677532 58.01266135 -18 50 C-18.63164062 49.37738281 -19.26328125 48.75476563 -19.9140625 48.11328125 C-24.10770821 43.69107191 -27.4747315 38.60215448 -30.875 33.5625 C-31.36427979 32.85851074 -31.85355957 32.15452148 -32.35766602 31.42919922 C-35.60620596 26.47189634 -37.25710143 21.99978513 -37 16 C-35.58423366 12.74373742 -33.7433726 10.26626433 -31 8 C-30.34 8 -29.68 8 -29 8 C-28.855625 7.195625 -28.71125 6.39125 -28.5625 5.5625 C-28 3 -28 3 -27 2 C-19.53529699 1.2890759 -14.25500416 2.80240741 -8 7 C-7.01 8.485 -7.01 8.485 -6 10 C-6.65061095 11.67299959 -7.32033324 13.33859237 -8 15 C-8.07646165 17.3320802 -8.09143299 19.66845878 -8 22 C-4.99272217 14.76973627 -2.40673465 7.45063598 0 0 Z " fill="#FCFDFD" transform="translate(41,123)"/>
<path d="M0 0 C3.42303175 2.66065143 5.89679834 4.88697863 8.125 8.625 C8.60195312 9.40101562 9.07890625 10.17703125 9.5703125 10.9765625 C13.43004842 19.13895486 14.52809862 26.77354626 14.4375 35.75 C14.42992676 36.80477539 14.42235352 37.85955078 14.41455078 38.94628906 C14.24006145 47.23771627 13.19516103 54.28001465 10 62 C9.34644531 63.59714844 9.34644531 63.59714844 8.6796875 65.2265625 C1.24444861 81.60033994 -14.11110958 89.72863895 -30.3671875 95.8984375 C-47.30148629 101.81665265 -67.5610691 103.57414581 -85 99 C-81.39017558 96.59345039 -77.92368781 96.02267119 -73.75 95.1875 C-54.87267992 91.13576413 -35.51041431 84.26961879 -21 71 C-19.6696875 69.824375 -19.6696875 69.824375 -18.3125 68.625 C-4.3941082 52.82574445 0.20210812 33.54193749 0.0625 13.0625 C0.05798828 11.80630859 0.05347656 10.55011719 0.04882812 9.25585938 C0.03709681 6.17052337 0.020681 3.08528684 0 0 Z " fill="#2095A7" transform="translate(202,46)"/>
<path d="M0 0 C1.0904811 0.00092179 2.1809622 0.00184359 3.30448818 0.00279331 C4.55115765 0.00141865 5.79782711 0.00004398 7.08227444 -0.00137234 C8.47653127 0.00216727 9.87078785 0.00580209 11.26504421 0.00952244 C12.72330123 0.0098043 14.18155839 0.00964659 15.63981533 0.00907993 C19.61071618 0.00879193 23.58158708 0.01468906 27.55248094 0.02165389 C31.69783233 0.02788702 35.84318434 0.02849119 39.9885397 0.0296793 C47.84377459 0.03279274 55.69899564 0.04100629 63.55422443 0.05102879 C72.49482531 0.06218954 81.43542684 0.06770028 90.37603295 0.07272422 C108.77255694 0.0831889 127.16906802 0.10078858 145.56558132 0.12304783 C146.31558132 2.37304783 146.31558132 2.37304783 146.56558132 5.12304783 C144.9961853 7.40422249 144.9961853 7.40422249 142.56558132 9.12304783 C139.84848595 9.62361908 139.84848595 9.62361908 136.67591763 9.62425327 C135.47153042 9.63408741 134.26714321 9.64392155 133.02625942 9.65405369 C131.70819805 9.64438572 130.39013668 9.63471775 129.03213406 9.62475681 C127.62755702 9.62854053 126.22298371 9.63404101 124.81841946 9.64112949 C121.00643436 9.65509353 117.19490012 9.6439086 113.38294005 9.62741828 C109.39515655 9.61357225 105.40739934 9.62002724 101.41960049 9.62355137 C94.72380203 9.62625354 88.02818283 9.61277632 81.33242702 9.58960056 C73.58769382 9.56297984 65.84326014 9.56124709 58.09849685 9.57298893 C50.65112084 9.58376151 43.20385333 9.57758446 35.75648594 9.56343365 C32.58547372 9.5576704 29.41454081 9.55775914 26.24352741 9.56249905 C22.51126692 9.56726539 18.77933519 9.55718181 15.04713726 9.5355444 C13.676119 9.52997201 12.30506918 9.52951539 10.93404865 9.53449726 C9.06544553 9.54043656 7.19681045 9.52613051 5.32826138 9.51072788 C4.28169086 9.50829799 3.23512033 9.50586809 2.15683556 9.50336456 C-0.43441868 9.12304783 -0.43441868 9.12304783 -2.27896118 7.76288033 C-3.88454545 5.48422511 -3.72076029 3.84329314 -3.43441868 1.12304783 C-2.43441868 0.12304783 -2.43441868 0.12304783 0 0 Z " fill="#DDE4F4" transform="translate(70.43441867828369,288.8769521713257)"/>
<path d="M0 0 C2.79423587 1.97021509 3.55929674 4.06591009 4.76171875 7.2421875 C5.19489262 10.15038681 5.23758271 12.99298798 5.19921875 15.9296875 C5.1930957 16.72407227 5.18697266 17.51845703 5.18066406 18.33691406 C4.94037674 27.42716813 2.37930313 36.62460312 -4.23828125 43.2421875 C-6.81948762 43.4505894 -9.34084059 43.56681665 -11.92578125 43.6171875 C-12.98829102 43.67326172 -12.98829102 43.67326172 -14.07226562 43.73046875 C-17.96987988 43.79524904 -20.50290123 43.46023614 -23.6328125 41.03125 C-29.22272965 35.04744064 -28.81170083 28.39946453 -28.6171875 20.62890625 C-28.20932018 13.88520754 -26.1367355 7.5971483 -21.67578125 2.43359375 C-15.15158332 -3.32401093 -7.69851288 -2.52973445 0 0 Z " fill="#FCFDFD" transform="translate(224.23828125,201.7578125)"/>
<path d="M0 0 C1.1240625 -0.00515625 2.248125 -0.0103125 3.40625 -0.015625 C6.35041743 0.23715705 8.01695505 0.71635459 10.5 2.25 C10.20665096 8.58633936 9.29120787 14.0303767 5.5 19.25 C4.15898957 20.45558166 2.78161163 21.62164729 1.375 22.75 C-2.99894088 26.28466071 -3.44960434 28.82295576 -4.5 34.25 C-7.34250153 38.88222471 -10.72512649 40.90597119 -15.5 43.25 C-16.49 43.25 -17.48 43.25 -18.5 43.25 C-18.5 39.62 -18.5 35.99 -18.5 32.25 C-19.82 32.25 -21.14 32.25 -22.5 32.25 C-23.16 31.59 -23.82 30.93 -24.5 30.25 C-25.82 30.25 -27.14 30.25 -28.5 30.25 C-28.314375 29.5075 -28.12875 28.765 -27.9375 28 C-27.50796892 25.30009037 -27.64877026 23.80368923 -28.5 21.25 C-29.428125 21.12625 -30.35625 21.0025 -31.3125 20.875 C-34.5 20.25 -34.5 20.25 -37.5 18.25 C-35.66428801 13.29357763 -31.63264649 10.4285678 -27.125 7.9375 C-24.5 7.25 -24.5 7.25 -20.5625 7.4375 C-17.25390728 7.54342481 -15.75301974 7.04850828 -13.25 4.875 C-12.3425 4.00875 -11.435 3.1425 -10.5 2.25 C-7.04116606 0.00022748 -4.073771 -0.01868702 0 0 Z " fill="#3F838F" transform="translate(150.5,221.75)"/>
<path d="M0 0 C-2.94482381 2.45401984 -6.07507464 4.07202418 -9.53320312 5.70117188 C-17.18045597 9.30701939 -23.7245477 13.2559824 -30 19 C-31.05767578 19.92039062 -31.05767578 19.92039062 -32.13671875 20.859375 C-46.13426595 33.76378042 -51.36824539 54.14359406 -56 72 C-63.07252236 61.39121645 -62.51237226 44.45308066 -60.34375 32.33203125 C-57.08548837 21.25113286 -50.2835801 15.51559022 -40.5234375 9.8203125 C-28.18759432 3.44724939 -13.95348111 -0.72173178 0 0 Z " fill="#24A7BB" transform="translate(138,37)"/>
<path d="M0 0 C1.18223145 0.00572021 2.36446289 0.01144043 3.58251953 0.01733398 C22.21549491 0.39621894 39.06924596 7.69079979 52.75 20.5 C53.78503037 21.80632688 54.79769277 23.13219566 55.75 24.5 C53.20656923 23.50095872 50.69124204 22.47354542 48.19921875 21.3515625 C21.66335607 9.56618643 -11.0369517 8.59480573 -38.32128906 18.73193359 C-46.51329053 21.99421671 -54.30230913 26.04110003 -61.25 31.5 C-56.42025289 19.52565658 -41.74941088 11.06176617 -30.8125 5.75 C-20.70471563 1.45677137 -10.94172368 -0.06194612 0 0 Z " fill="#F8FBFB" transform="translate(140.25,4.5)"/>
<path d="M0 0 C3.875 1.75 3.875 1.75 5 4 C-1.66440641 9.70148838 -8.29131302 14.7987656 -16 19 C-17.06734375 19.58587891 -17.06734375 19.58587891 -18.15625 20.18359375 C-31.59059981 27.2366274 -49.43093527 28.33767643 -64 24.1015625 C-74.1528146 20.37357589 -82.94417063 15.2487236 -91 8 C-91.56847656 7.48953125 -92.13695313 6.9790625 -92.72265625 6.453125 C-94.125 5.125 -94.125 5.125 -96 3 C-96 2.34 -96 1.68 -96 1 C-92.48441896 1.32958572 -90.67898386 2.21199179 -87.6875 4.1875 C-70.82954914 15.19155142 -49.64032186 17.30665647 -30.1875 13.875 C-19.1233174 11.33274445 -9.09561158 6.78561499 0 0 Z " fill="#B6D1D5" transform="translate(187,144)"/>
<path d="M0 0 C4.59287842 0.54033864 7.4241157 2.08091078 11 5 C17 12.68109339 17 12.68109339 17 16 C18.32 16 19.64 16 21 16 C22.73331561 26.11100773 24.28145414 36.24303377 25.4375 46.4375 C25.55464355 47.33041748 25.67178711 48.22333496 25.79248047 49.14331055 C26.45101269 55.42957458 26.45101269 55.42957458 24.08203125 58.42578125 C23.39496094 58.94527344 22.70789063 59.46476562 22 60 C21.20318682 62.64184541 21.20318682 62.64184541 21 65 C18.03 65 15.06 65 12 65 C12.33 64.13375 12.66 63.2675 13 62.375 C18.09162507 44.26336225 11.68757398 21.14488757 3.11328125 4.91796875 C2.1392917 3.23997272 1.07622221 1.61433332 0 0 Z " fill="#F6FAFA" transform="translate(41,229)"/>
<path d="M0 0 C-0.99 0.33 -1.98 0.66 -3 1 C-4.10548511 3.17129777 -4.10548511 3.17129777 -5 6 C-5.46277344 7.21429688 -5.92554688 8.42859375 -6.40234375 9.6796875 C-11.17475185 22.57012529 -14.22469554 34.76841897 -14.3125 48.5625 C-14.31813965 49.4078833 -14.3237793 50.2532666 -14.32958984 51.12426758 C-14.27444625 55.79885533 -13.78717226 59.60683153 -12 64 C-14.97 64 -17.94 64 -21 64 C-21.268125 63.071875 -21.53625 62.14375 -21.8125 61.1875 C-22.70858524 58.04713049 -22.70858524 58.04713049 -24.58691406 56.53808594 C-25.05323242 56.03051758 -25.51955078 55.52294922 -26 55 C-25.83462557 51.9087703 -25.47570022 49.04832115 -25 46 C-24.72997657 43.72447596 -24.4646923 41.44838655 -24.203125 39.171875 C-23.88727023 36.69767934 -23.56952277 34.22372465 -23.25 31.75 C-23.105625 30.49703125 -22.96125 29.2440625 -22.8125 27.953125 C-21.59076959 18.73103092 -21.59076959 18.73103092 -18.515625 14.92578125 C-17.68546875 14.29027344 -16.8553125 13.65476563 -16 13 C-14.57540854 10.7337295 -14.57540854 10.7337295 -13.5 8.4375 C-10.53495833 2.81608031 -6.6464941 -1.99394823 0 0 Z " fill="#F6FAFA" transform="translate(242,230)"/>
<path d="M0 0 C2.90017086 2.61566043 4.99111184 4.75038824 6.5 8.375 C5.530625 7.50875 4.56125 6.6425 3.5625 5.75 C-11.16849379 -6.77134472 -29.12204323 -12.76192988 -48.41796875 -12.79296875 C-49.15646561 -12.79629715 -49.89496246 -12.79962555 -50.65583801 -12.80305481 C-52.21138899 -12.80808935 -53.76695065 -12.81046422 -55.32250977 -12.81030273 C-57.66376239 -12.81247795 -60.00453428 -12.83063958 -62.34570312 -12.84960938 C-74.13227853 -12.89561523 -85.1426437 -11.80978247 -96.375 -8 C-97.13458008 -7.74420166 -97.89416016 -7.48840332 -98.67675781 -7.22485352 C-109.9607007 -3.24332821 -121.79189003 2.73741694 -128.875 12.6875 C-129.37773437 13.38488281 -129.88046875 14.08226562 -130.3984375 14.80078125 C-130.94371094 15.58001953 -130.94371094 15.58001953 -131.5 16.375 C-131.995 14.89 -131.995 14.89 -132.5 13.375 C-119.0761228 -1.87491932 -104.59001146 -11.81150419 -84.5 -16.625 C-83.10587891 -16.96144531 -83.10587891 -16.96144531 -81.68359375 -17.3046875 C-54.27805457 -22.63252867 -21.53713196 -18.74129885 0 0 Z " fill="#EEF4F5" transform="translate(201.5,38.625)"/>
<path d="M0 0 C3.89247578 1.61395337 5.78195782 4.30013695 7.5625 8.0625 C7.83455527 11.39517704 7.43364032 13.00198135 5.3046875 15.59375 C-0.69820947 21.27765244 -9.17336811 25.39243525 -17.4375 26.0625 C-17.4375 25.0725 -17.4375 24.0825 -17.4375 23.0625 C-15.72265625 21.5625 -15.72265625 21.5625 -13.5 20.0625 C-10.06344582 17.80856985 -10.06344582 17.80856985 -8.4375 14.0625 C-13.8825 18.0225 -13.8825 18.0225 -19.4375 22.0625 C-20.0975 21.7325 -20.7575 21.4025 -21.4375 21.0625 C-18.80598915 12.64166528 -12.00366665 5.19940986 -4.37890625 0.90234375 C-2.4375 0.0625 -2.4375 0.0625 0 0 Z " fill="#F3F7F8" transform="translate(147.4375,224.9375)"/>
<path d="M0 0 C-0.01571045 0.89755005 -0.01571045 0.89755005 -0.03173828 1.81323242 C-0.25518184 16.53929433 -0.20960164 30.02879561 5 44 C-0.27216362 43.58649697 -3.27385398 42.82965008 -7 39 C-9.87795246 34.47750327 -10.70782025 30.2592355 -11 25 C-11.14888672 23.12441406 -11.14888672 23.12441406 -11.30078125 21.2109375 C-11.99435819 9.07547734 -11.99435819 9.07547734 -7.625 4.0625 C-3.28571429 0 -3.28571429 0 0 0 Z " fill="#F6F9FA" transform="translate(61,66)"/>
<path d="M0 0 C0.99 0.495 0.99 0.495 2 1 C-18.7150263 16.70332639 -39.27801225 21.17437315 -64.90234375 18.609375 C-73.79341986 16.86031085 -87.0386784 12.17151471 -93 5 C-92.44054687 5.17015625 -91.88109375 5.3403125 -91.3046875 5.515625 C-88.53876122 6.35162844 -85.76982627 7.17700543 -83 8 C-81.83339844 8.34804687 -80.66679688 8.69609375 -79.46484375 9.0546875 C-77.65693359 9.58449219 -77.65693359 9.58449219 -75.8125 10.125 C-74.68457031 10.45757812 -73.55664062 10.79015625 -72.39453125 11.1328125 C-49.3082018 17.03058596 -22.31765776 12.46158696 -1.75 0.78515625 C-1.1725 0.52605469 -0.595 0.26695312 0 0 Z " fill="#F0F5F6" transform="translate(189,136)"/>
<path d="M0 0 C6.44485353 0.55875809 6.44485353 0.55875809 8.9609375 2.55859375 C9.42757812 3.17863281 9.89421875 3.79867187 10.375 4.4375 C10.85710937 5.05496094 11.33921875 5.67242187 11.8359375 6.30859375 C15.94370214 12.27725848 15.12018639 20.77863166 15.3125 27.75 C15.34988281 28.98234375 15.38726562 30.2146875 15.42578125 31.484375 C14.90899441 35.75142227 13.8347712 37.78443863 11 41 C7.75 42.375 7.75 42.375 5 43 C4.98598145 41.95211304 4.98598145 41.95211304 4.97167969 40.88305664 C4.73533711 26.77548997 4.060629 13.56061218 0 0 Z " fill="#F9FBFB" transform="translate(215,50)"/>
<path d="M0 0 C3.0033329 2.83795113 5.30902617 5.77267051 7.625 9.1875 C16.92964326 22.00268632 31.27165662 31.71854707 47 35 C50.66239348 35.47937087 54.31227735 35.80010475 58 36 C55.71101256 42.38507021 55.71101256 42.38507021 52.6875 45 C48.35864212 46.61073782 44.9916418 45.38177009 40.7734375 43.7578125 C31.72007658 39.40803679 24.9968424 34.17544048 18 27 C17.36835938 26.37738281 16.73671875 25.75476563 16.0859375 25.11328125 C10.59057557 19.31840908 6.4460131 12.33739053 2.16015625 5.6328125 C1.53572632 4.65658936 1.53572632 4.65658936 0.89868164 3.66064453 C0 2 0 2 0 0 Z " fill="#B4D0D4" transform="translate(5,146)"/>
<path d="M0 0 C7.8316181 -0.2700558 15.27279225 0.76892281 23 2 C22.34 4.97 21.68 7.94 21 11 C16.99038596 12.00427716 13.54615906 11.9773068 9.4375 11.625 C7.76494141 11.48964844 7.76494141 11.48964844 6.05859375 11.3515625 C3.60230531 11.0692305 1.36821257 10.68324959 -1 10 C-1.125 2.25 -1.125 2.25 0 0 Z " fill="#AAADB0" transform="translate(231,268)"/>
<path d="M0 0 C0.33 3.3 0.66 6.6 1 10 C-1.35344806 10.33923576 -3.7075484 10.67150534 -6.0625 11 C-6.71927734 11.09539062 -7.37605469 11.19078125 -8.05273438 11.2890625 C-12.40138763 11.88887674 -16.61329071 12.09127093 -21 12 C-21.66 8.7 -22.32 5.4 -23 2 C-15.21211402 0.47776051 -7.93648775 -0.20885494 0 0 Z " fill="#A9ADB0" transform="translate(52,268)"/>
<path d="M0 0 C0.33 0.66 0.66 1.32 1 2 C3.97 2 6.94 2 10 2 C10.36644578 3.55966592 10.71760862 5.12292651 11.0625 6.6875 C11.25972656 7.55761719 11.45695312 8.42773438 11.66015625 9.32421875 C12.02449927 12.19289657 11.79857584 14.23128498 11 17 C10 18 9 19 8 20 C7.27802838 22.60611077 7.27802838 22.60611077 7 25 C4.03 25 1.06 25 -2 25 C-1.67257813 24.03964844 -1.34515625 23.07929688 -1.0078125 22.08984375 C0.2840196 17.56843141 0.22283164 13.23207954 0.125 8.5625 C0.11597656 7.73556641 0.10695312 6.90863281 0.09765625 6.05664062 C0.07431512 4.03763292 0.03845288 2.01877644 0 0 Z " fill="#B3CFD4" transform="translate(55,269)"/>
<path d="M0 0 C0.33 1.32 0.66 2.64 1 4 C3.64 4 6.28 4 9 4 C9.07347656 5.73636719 9.07347656 5.73636719 9.1484375 7.5078125 C9.22351478 9.0468967 9.29906043 10.5859581 9.375 12.125 C9.4059375 12.88554687 9.436875 13.64609375 9.46875 14.4296875 C9.702369 18.94632158 10.32654117 22.74152347 12 27 C9.03 27 6.06 27 3 27 C2.731875 26.071875 2.46375 25.14375 2.1875 24.1875 C1.29513578 21.04562507 1.29513578 21.04562507 -0.58984375 19.55859375 C-2 18 -2 18 -2.109375 16.0546875 C-1.99078125 15.33539063 -1.8721875 14.61609375 -1.75 13.875 C-1.63269531 13.08996094 -1.51539063 12.30492187 -1.39453125 11.49609375 C-1.26433594 10.67238281 -1.13414062 9.84867187 -1 9 C-0.80412634 7.31345145 -0.61621462 5.62595302 -0.4375 3.9375 C-0.293125 2.638125 -0.14875 1.33875 0 0 Z " fill="#B0CED2" transform="translate(218,267)"/>
<path d="M0 0 C1.71521167 0.12478715 3.42498772 0.32581799 5.12890625 0.55859375 C6.68061523 0.76645508 6.68061523 0.76645508 8.26367188 0.97851562 C9.35228516 1.12998047 10.44089844 1.28144531 11.5625 1.4375 C13.2012207 1.65889648 13.2012207 1.65889648 14.87304688 1.88476562 C17.58274164 2.2515802 20.29163006 2.62354825 23 3 C22.67 5.64 22.34 8.28 22 11 C17.49629895 12.25397167 13.42806742 11.76359051 8.875 11.125 C8.15957031 11.03347656 7.44414062 10.94195312 6.70703125 10.84765625 C3.67761587 10.44562169 0.90594773 9.96864924 -2 9 C-1.125 1.125 -1.125 1.125 0 0 Z " fill="#A8ACB0" transform="translate(234,255)"/>
<path d="M0 0 C0.99 0.495 0.99 0.495 2 1 C2 1.66 2 2.32 2 3 C8.9800103 5.82973391 15.67348396 7.47532998 23.171875 5.3984375 C25.99459864 4.20420827 28.45096295 2.69935803 31 1 C29.60332244 5.88837146 27.65571105 10.34428895 24 14 C21.41879363 14.2084019 18.89744066 14.32462915 16.3125 14.375 C15.24999023 14.43107422 15.24999023 14.43107422 14.16601562 14.48828125 C10.16592025 14.55476483 7.72834251 14.19450273 4.56640625 11.63671875 C0.78440559 7.75110164 0 5.38697074 0 0 Z " fill="#B6D1D5" transform="translate(196,231)"/>
<path d="M0 0 C0.66 2.97 1.32 5.94 2 9 C-5.66684446 10.71645771 -13.16096555 11.53309826 -21 12 C-21 9.03 -21 6.06 -21 3 C-18.6263603 2.49265716 -16.25142575 1.99397614 -13.875 1.5 C-13.20984375 1.35691406 -12.5446875 1.21382812 -11.859375 1.06640625 C-7.83943578 0.2387717 -4.10095101 -0.15330658 0 0 Z " fill="#A7ACAF" transform="translate(46,243)"/>
<path d="M0 0 C0.66 2.97 1.32 5.94 2 9 C-6.04927976 10.29901921 -13.83759432 11.33853295 -22 11 C-22.33 8.36 -22.66 5.72 -23 3 C-19.91747911 2.49490361 -16.83386475 1.99682001 -13.75 1.5 C-12.87730469 1.35691406 -12.00460938 1.21382813 -11.10546875 1.06640625 C-10.26113281 0.93105469 -9.41679688 0.79570312 -8.546875 0.65625 C-7.77182617 0.53056641 -6.99677734 0.40488281 -6.19824219 0.27539062 C-4 0 -4 0 0 0 Z " fill="#ABADB0" transform="translate(49,255)"/>
<path d="M0 0 C2.58373234 0.30944701 5.16695133 0.62243957 7.75 0.9375 C8.47960937 1.02451172 9.20921875 1.11152344 9.9609375 1.20117188 C13.37584442 1.62027409 16.67603543 2.117274 20 3 C20 5.64 20 8.28 20 11 C12.40501039 11.26442904 5.42640842 10.60881575 -2 9 C-1.125 2.25 -1.125 2.25 0 0 Z " fill="#AAADB0" transform="translate(237,243)"/>
<path d="M0 0 C1.1240625 -0.00515625 2.248125 -0.0103125 3.40625 -0.015625 C6.35041743 0.23715705 8.01695505 0.71635459 10.5 2.25 C10.15381859 9.72751844 8.87209702 15.85856017 3.45703125 21.3046875 C1.51385573 23.01743336 -0.45464865 24.66137759 -2.5 26.25 C-2.5 22.6214357 -1.72988792 22.05902594 0.5625 19.375 C2.99340958 16.34994027 2.99340958 16.34994027 3.625 12.625 C2.19647099 9.60921653 0.44941822 6.95403173 -1.5 4.25 C-5.4492568 4.80105909 -8.84920174 5.63935371 -12.5 7.25 C-11.03768844 2.61934673 -11.03768844 2.61934673 -8.828125 1.1015625 C-5.79805198 -0.0067528 -3.22161564 -0.01477805 0 0 Z " fill="#3F8490" transform="translate(150.5,221.75)"/>
<path d="M0 0 C0.31087045 3.96359827 0.32482417 6.38933056 -1.5625 9.9375 C-4 12 -4 12 -7.5 12.4375 C-12.75483871 11.78064516 -12.75483871 11.78064516 -15 10 C-19 4.25605536 -19 4.25605536 -19 1 C-12.62641289 0.03794912 -6.44070471 -0.10655578 0 0 Z " fill="#A8ADB0" transform="translate(52,282)"/>
<path d="M0 0 C6.44070471 -0.10655578 12.62641289 0.03794912 19 1 C18.58534283 5.83766699 16.5801385 7.85646376 13 11 C10.12529507 12.43735246 8.18105412 12.38172649 5 12 C1.03750377 8.46588175 0.40625897 5.17980188 0 0 Z " fill="#AAADB0" transform="translate(230,282)"/>
<path d="M0 0 C2.375 1.5625 2.375 1.5625 4 4 C4.75 7.75 4.75 7.75 5 11 C3.10388566 10.85786703 1.20811606 10.71113093 -0.6875 10.5625 C-1.74324219 10.48128906 -2.79898438 10.40007812 -3.88671875 10.31640625 C-6.65086297 10.03548319 -9.28945741 9.59843148 -12 9 C-9.84803334 1.55088465 -8.18961488 -1.00574218 0 0 Z " fill="#AAADB1" transform="translate(251,231)"/>
<path d="M0 0 C3.44391324 2.75513059 5.14785121 4.71176736 6 9 C3.93827387 9.33808686 1.8755797 9.67027361 -0.1875 10 C-1.91033203 10.2784375 -1.91033203 10.2784375 -3.66796875 10.5625 C-6.50415393 10.93489477 -9.14719564 11.08596021 -12 11 C-11.43518386 7.04628701 -10.28003407 4.28324906 -8 1 C-5.11138291 -0.44430855 -3.20352299 -0.37688506 0 0 Z " fill="#AAADB1" transform="translate(38,231)"/>
<path d="M0 0 C-0.66 2.31 -1.32 4.62 -2 7 C-7.94 7 -13.88 7 -20 7 C-19.34 5.02 -18.68 3.04 -18 1 C-15.37583048 0.63835477 -12.75099687 0.28538847 -10.125 -0.0625 C-9.37863281 -0.16626953 -8.63226563 -0.27003906 -7.86328125 -0.37695312 C-2.2265625 -1.11328125 -2.2265625 -1.11328125 0 0 Z " fill="#B8D2D6" transform="translate(84,181)"/>
<path d="M0 0 C0.99 0.103125 1.98 0.20625 3 0.3125 C5 3.3125 5 3.3125 4.75 6.875 C4 10.3125 4 10.3125 2 12.3125 C-0.4375 12.6875 -0.4375 12.6875 -3 12.3125 C-4.875 10.6875 -4.875 10.6875 -6 8.3125 C-5.70837034 3.45200569 -5.30449701 0.55255177 0 0 Z " fill="#24A7BB" transform="translate(182,96.6875)"/>
<path d="M0 0 C3 0.25 3 0.25 5 2.25 C5.36796448 5.12012296 5.37509409 6.65774618 3.8125 9.125 C2 10.25 2 10.25 -0.5625 10.0625 C-3 9.25 -3 9.25 -5 7.25 C-5.25 4.75 -5.25 4.75 -5 2.25 C-3 0.25 -3 0.25 0 0 Z " fill="#388492" transform="translate(147,228.75)"/>
<path d="M0 0 C3.625 0.375 3.625 0.375 6.0625 2.1875 C7.625 4.375 7.625 4.375 7.625 7.375 C6.87734375 7.29121094 6.1296875 7.20742187 5.359375 7.12109375 C4.37453125 7.01925781 3.3896875 6.91742188 2.375 6.8125 C0.91320312 6.65587891 0.91320312 6.65587891 -0.578125 6.49609375 C-3.1381352 6.38525532 -4.95648159 6.59761908 -7.375 7.375 C-4.85670732 0.53963415 -4.85670732 0.53963415 0 0 Z " fill="#B4B8BC" transform="translate(247.375,230.625)"/>
<path d="M0 0 C2.375 2 2.375 2 4 4 C3.67 4.99 3.34 5.98 3 7 C2.34 6.67 1.68 6.34 1 6 C-0.87862875 6.08744368 -2.75455181 6.24175542 -4.625 6.4375 C-5.62789062 6.53933594 -6.63078125 6.64117187 -7.6640625 6.74609375 C-8.43492188 6.82988281 -9.20578125 6.91367188 -10 7 C-9.6875 4.625 -9.6875 4.625 -9 2 C-5.50875983 -0.32749345 -4.10777749 -0.50299316 0 0 Z " fill="#B7B9BC" transform="translate(38,231)"/>
<path d="M0 0 C-0.08501252 2.89042553 -0.58292478 4.56242968 -2.58984375 6.66796875 C-7.62158551 11 -7.62158551 11 -9 11 C-9 8.36 -9 5.72 -9 3 C-2.25 0 -2.25 0 0 0 Z " fill="#D32F30" transform="translate(144,250)"/>
<path d="M0 0 C-1.12451727 2.9719385 -2.22293791 5.33440687 -4 8 C-6.64 7.67 -9.28 7.34 -12 7 C-12 6.34 -12 5.68 -12 5 C-7.94201961 1.38072019 -5.5241925 0 0 0 Z " fill="#CE3232" transform="translate(130,232)"/>
<path d="M0 0 C4.12323366 1.3293874 6.13827893 2.87450435 8.75 6.3125 C9.34296875 7.07175781 9.9359375 7.83101562 10.546875 8.61328125 C12.07668706 11.12595644 12.61044366 13.10395613 13 16 C8.08814635 11.38583445 3.03171034 6.06342069 0 0 Z " fill="#DBE8EA" transform="translate(193,143)"/>
<path d="M0 0 C0.66 0 1.32 0 2 0 C1.71812064 1.79323253 1.4241719 3.58457126 1.125 5.375 C0.96257812 6.37273437 0.80015625 7.37046875 0.6328125 8.3984375 C0 11 0 11 -2 13 C-2.66 12.67 -3.32 12.34 -4 12 C-3.71788123 10.3733152 -3.42397625 8.74867104 -3.125 7.125 C-2.96257813 6.22007812 -2.80015625 5.31515625 -2.6328125 4.3828125 C-2 2 -2 2 0 0 Z " fill="#488D98" transform="translate(66,173)"/>
<path d="M0 0 C4.20402145 1.40385636 6.92189207 3.40087599 10.1875 6.375 C11.04730469 7.14585938 11.90710938 7.91671875 12.79296875 8.7109375 C14.78484862 10.77685184 15.92534943 12.3704081 17 15 C16.030625 14.13375 15.06125 13.2675 14.0625 12.375 C10.54459322 9.34529252 6.82416876 6.79791872 2.91796875 4.296875 C1 3 1 3 -1 1 C-0.67 0.67 -0.34 0.34 0 0 Z " fill="#E0ECED" transform="translate(191,32)"/>
<path d="M0 0 C-1.56612193 3.84411747 -4.02094121 6.15950209 -7 9 C-7.928125 9.928125 -8.85625 10.85625 -9.8125 11.8125 C-10.534375 12.534375 -11.25625 13.25625 -12 14 C-11.4548447 9.90655322 -9.29134623 7.73644931 -6.5625 4.75 C-5.75941406 3.85796875 -4.95632812 2.9659375 -4.12890625 2.046875 C-2 0 -2 0 0 0 Z " fill="#DCE9EB" transform="translate(81,41)"/>
<path d="M0 0 C1.65 0.33 3.3 0.66 5 1 C4.67 2.32 4.34 3.64 4 5 C2.35 4.67 0.7 4.34 -1 4 C-0.67 2.68 -0.34 1.36 0 0 Z " fill="#23A2E4" transform="translate(145,231)"/>
<path d="M0 0 C0.33 0 0.66 0 1 0 C1 2.64 1 5.28 1 8 C0.01 8.33 -0.98 8.66 -2 9 C-1.125 1.125 -1.125 1.125 0 0 Z " fill="#418994" transform="translate(67,165)"/>
<path d="M0 0 C1.65 0 3.3 0 5 0 C5 1.98 5 3.96 5 6 C3.31237149 4.3545622 1.6459651 2.68711423 0 1 C0 0.67 0 0.34 0 0 Z " fill="#CA3435" transform="translate(152,225)"/>
<path d="M0 0 C0.66 0 1.32 0 2 0 C1.67 2.64 1.34 5.28 1 8 C0.01 7.34 -0.98 6.68 -2 6 C-1.125 1.125 -1.125 1.125 0 0 Z " fill="#52939D" transform="translate(66,173)"/>
<path d="M0 0 C3.3 0.99 6.6 1.98 10 3 C9.01 4.485 9.01 4.485 8 6 C6.66402348 5.19185349 5.331275 4.37836819 4 3.5625 C3.2575 3.11003906 2.515 2.65757812 1.75 2.19140625 C1.1725 1.79824219 0.595 1.40507812 0 1 C0 0.67 0 0.34 0 0 Z " fill="#D3E3E6" transform="translate(96,141)"/>
</svg>
